# xmcd
#
# Track frame offsets:
#	150
#	11629
#	25216
#	41775
#	54130
#	68114
#	81322
#	95451
#	107468
#	118281
#	135467
#	148276
#	161563
#	173249
#	185451
#	204153
#	220329
#	232561
#	248528
#	258134
#
# Disc length: 3641 seconds
#
# Revision: 2
# Processed by: cddbd v1.5.2PL0 Copyright (c) Steve Scherf et al.
# Submitted via: audiograbber 1.83.01
#
DISCID=090e3714
DTITLE=Foster and Allen - Partners In Rhyme
DYEAR=2001
DGENRE=Easy Listening
TTITLE0=Heartbeat
TTITLE1=Blueberry Hill
TTITLE2=No Matter What
TTITLE3=Putting On The Style
TTITLE4=Partners In Rhyme
TTITLE5=Gentle On My Mind
TTITLE6=True Love (featuring Gloria Hunniford)
TTITLE7=Lovely Leitrim
TTITLE8=Bye Bye Love
TTITLE9=I Wish It Was Me
TTITLE10=Have A Drink On Me
TTITLE11=My First Love
TTITLE12=Born To Be With You
TTITLE13=Among The Wicklow Hills
TTITLE14=Cottage In The Country
TTITLE15=Let It Be Me
TTITLE16=Nobody Loves Like An Irishman
TTITLE17=Far Away A Light Is Burning
TTITLE18=Dwyer's/Dowd's No. 9 (Reels)
TTITLE19=Beautiful Isle Of Somewhere
EXTD=YEAR: 2001
EXTT0=
EXTT1=
EXTT2=
EXTT3=
EXTT4=
EXTT5=
EXTT6=
EXTT7=
EXTT8=
EXTT9=
EXTT10=
EXTT11=
EXTT12=
EXTT13=
EXTT14=
EXTT15=
EXTT16=
EXTT17=
EXTT18=
EXTT19=
PLAYORDER=
